<?xml version="1.0" encoding="utf-8"?>
<!-- Generator: Adobe Illustrator 23.0.6, SVG Export Plug-In . SVG Version: 6.00 Build 0)  -->
<svg version="1.1" id="Layer_1" xmlns="http://www.w3.org/2000/svg" xmlns:xlink="http://www.w3.org/1999/xlink" x="0px" y="0px"
	 viewBox="0 0 60 60" style="enable-background:new 0 0 60 60;" xml:space="preserve">
<path d="M5.3,10.8l0,1.8h49.4v-1.8L5.3,10.8L5.3,10.8z M5.3,14.5l0,4.9H6C6,17.5,7.5,16,9.3,16s3.3,1.5,3.3,3.3h1.7c0,0,0,0,0-0.1
	c0-1.8,1.5-3.3,3.3-3.3c1.8,0,3.3,1.5,3.3,3.3c0,0,0,0,0,0.1h1.6c0-1.8,1.5-3.3,3.3-3.3c1.8,0,3.3,1.5,3.3,3.3h1.7c0,0,0,0,0-0.1
	c0-1.8,1.5-3.3,3.3-3.3c1.8,0,3.3,1.5,3.3,3.3c0,0,0,0,0,0.1h1.7c0,0,0-0.1,0-0.1c0-1.8,1.5-3.3,3.3-3.3c1.8,0,3.3,1.5,3.3,3.3
	c0,0,0,0.1,0,0.1h1.7c0-0.1,0-0.1,0-0.2c0-1.8,1.5-3.3,3.3-3.3s3.3,1.5,3.3,3.3c0,0.1,0,0.1,0,0.2h0.7v-4.9H5.3z M5.1,21l0,10H6
	c0.2-4.2,1.6-7.5,3.3-7.5c1.7,0,3.1,3.2,3.3,7.5h1.7c0.2-4.2,1.6-7.5,3.3-7.5c1.7,0,3.1,3.2,3.3,7.5h1.7c0.2-4.2,1.6-7.5,3.3-7.5
	c1.7,0,3.1,3.2,3.3,7.5h1.7c0.2-4.2,1.6-7.5,3.3-7.5c1.7,0,3.1,3.2,3.3,7.5h1.7c0.2-4.2,1.6-7.5,3.3-7.5c1.7,0,3.1,3.2,3.3,7.5h1.7
	c0.2-4.2,1.6-7.5,3.3-7.5c1.7,0,3.1,3.2,3.3,7.5h0.8l0-10C54.9,21,5.1,21,5.1,21z M5,32.6l0.1,16.6h2.7c0.1-8.1,3-14.7,6.5-14.7
	c3.6,0,6.5,6.5,6.5,14.7h2.7c0.2-7.9,3.1-14.1,6.5-14.1c3.5,0,6.3,6.2,6.5,14.1h2.7c0.2-7.9,3.1-14.1,6.5-14.1
	c3.5,0,6.3,6.2,6.5,14.1h2.6L55,32.6H5L5,32.6z"/>
</svg>
