<?xml version="1.0" encoding="utf-8"?>
<!-- Generator: Adobe Illustrator 23.0.6, SVG Export Plug-In . SVG Version: 6.00 Build 0)  -->
<svg version="1.1" id="Layer_1" xmlns="http://www.w3.org/2000/svg" xmlns:xlink="http://www.w3.org/1999/xlink" x="0px" y="0px"
	 viewBox="0 0 60 60" style="enable-background:new 0 0 60 60;" xml:space="preserve">
<path d="M39.9,4.3c-1.5,3.2-3.1,6.4-6.5,8.9c0.8,0.4,2.2,0.6,2.9,0.9c-1.3,2-3.5,3.8-5.4,5.5c1.2,0.6,2.3,1.1,3.5,1.5
	c-1.5,2.3-3.2,4.5-5.4,6.5c1.7,1,3.5,1.7,5.2,2.3c-1.9,2.7-4.2,5.2-7.6,8c5.4,2.8,10.2,4.1,14.9,3.9c0.2,0,0.4,0,0.6,0v0
	c4.2-0.2,8.3-1.6,12.9-4c-4.1-2.6-6.6-5-8.5-7.7c1.9-0.5,3.7-1.4,5.6-2.4c-2.7-1.9-4.6-4-6.2-6.4c1.3-0.4,2.5-0.9,3.8-1.6
	c-2.4-1.5-4.6-3.4-5.9-5.4c0.9-0.3,2.4-0.6,3.3-1C43,11.1,41.9,7.8,39.9,4.3z M21.4,36.1c0,0,0,0.1-0.1,0.1l2,14.6l7.6,0.1
	C26.9,46.2,24,41.4,21.4,36.1z M21.3,36.3c-2.5,5-4.7,9.9-9.1,14.4l8.1,0.1L21.3,36.3z M19.1,36.4c-2.5,0.9-5.7,1.8-8.6,1.7
	C9.3,42.2,7.7,46.4,5,50.2l4.9,0.2C14.4,46.1,16.6,41.4,19.1,36.4z M38.7,43.6L38.4,51l4.5,0.1l-0.6-7.3
	C41,43.7,39.8,43.7,38.7,43.6z"/>
</svg>
