<?xml version="1.0" encoding="utf-8"?>
<!-- Generator: Adobe Illustrator 23.0.6, SVG Export Plug-In . SVG Version: 6.00 Build 0)  -->
<svg version="1.1" id="Layer_1" xmlns="http://www.w3.org/2000/svg" xmlns:xlink="http://www.w3.org/1999/xlink" x="0px" y="0px"
	 viewBox="0 0 60 60" style="enable-background:new 0 0 60 60;" xml:space="preserve">
<path d="M47.8,11.6c-9.8-9.8-25.6-9.8-35.4,0s-9.8,25.6,0,35.4c9.8,9.8,25.6,9.8,35.4,0C57.6,37.2,57.6,21.3,47.8,11.6z M10.2,30.2
	C9.5,30.3,8.9,29.7,9,29c0.1-0.4,0.4-0.7,0.8-0.8c0.7-0.1,1.3,0.5,1.1,1.1C10.8,29.8,10.5,30.1,10.2,30.2z M13.3,40.1
	c-0.5,0.4-1.3,0.2-1.5-0.4c-0.1-0.4,0-0.8,0.3-1c0.5-0.4,1.3-0.2,1.5,0.4C13.7,39.4,13.6,39.8,13.3,40.1z M13.6,19.4
	c-0.2,0.6-1,0.9-1.5,0.4c-0.3-0.3-0.4-0.7-0.3-1c0.2-0.6,1-0.9,1.5-0.4C13.6,18.7,13.7,19.1,13.6,19.4z M21,47
	c-0.2,0.6-1,0.9-1.5,0.4c-0.3-0.3-0.4-0.7-0.3-1c0.2-0.6,1-0.9,1.5-0.4C21,46.3,21.1,46.7,21,47z M20.7,12.5
	c-0.5,0.4-1.3,0.2-1.5-0.4c-0.1-0.4,0-0.8,0.3-1c0.5-0.4,1.3-0.2,1.5,0.4C21.1,11.8,21,12.2,20.7,12.5z M25,21.6
	c-0.3-0.5-0.1-1,0.3-1.3c0.5-0.3,1-0.1,1.3,0.3l4.1,7.5c0.3,0.6,0.5,1.2,0.5,1.8v14.7c0,0.6-0.4,1-1,1c-0.6,0-1-0.4-1-1V30
	c0-0.3-0.1-0.6-0.2-0.9C29,29,25,21.6,25,21.6z M30.4,50.4c-0.7,0.1-1.3-0.5-1.1-1.1c0.1-0.4,0.4-0.7,0.8-0.8
	c0.7-0.1,1.3,0.5,1.1,1.1C31,50,30.7,50.3,30.4,50.4z M30.4,10c-0.7,0.1-1.3-0.5-1.1-1.1c0.1-0.4,0.4-0.7,0.8-0.8
	c0.7-0.1,1.3,0.5,1.1,1.1C31,9.6,30.7,9.9,30.4,10z M40.9,47.4c-0.5,0.4-1.3,0.2-1.5-0.4c-0.1-0.4,0-0.8,0.3-1
	c0.5-0.4,1.3-0.2,1.5,0.4C41.3,46.8,41.2,47.2,40.9,47.4z M41.2,12.1c-0.2,0.6-1,0.9-1.5,0.4c-0.3-0.3-0.4-0.7-0.3-1
	c0.2-0.6,1-0.9,1.5-0.4C41.2,11.3,41.3,11.7,41.2,12.1z M48.6,39.6c-0.2,0.6-1,0.9-1.5,0.4c-0.3-0.3-0.4-0.7-0.3-1
	c0.2-0.6,1-0.9,1.5-0.4C48.6,38.9,48.7,39.3,48.6,39.6z M48.3,19.9c-0.5,0.4-1.3,0.2-1.5-0.4c-0.1-0.4,0-0.8,0.3-1
	c0.5-0.4,1.3-0.2,1.5,0.4C48.7,19.2,48.6,19.6,48.3,19.9z M50.5,30.2c-0.7,0.1-1.3-0.5-1.1-1.1c0.1-0.4,0.4-0.7,0.8-0.8
	c0.7-0.1,1.3,0.5,1.1,1.1C51.2,29.8,50.9,30.1,50.5,30.2z"/>
</svg>
