<?xml version="1.0" encoding="utf-8"?>
<!-- Generator: Adobe Illustrator 23.0.6, SVG Export Plug-In . SVG Version: 6.00 Build 0)  -->
<svg version="1.1" id="Layer_1" xmlns="http://www.w3.org/2000/svg" xmlns:xlink="http://www.w3.org/1999/xlink" x="0px" y="0px"
	 viewBox="0 0 60 60" style="enable-background:new 0 0 60 60;" xml:space="preserve">
<path d="M16.1,2.1c-2,0-3.8,0.4-5,1C9.9,3.7,9.5,4.4,9.5,4.9S9.9,6,11.1,6.6c1.2,0.6,3,1,5,1s3.8-0.4,5-1c1.2-0.6,1.7-1.3,1.7-1.8
	s-0.5-1.2-1.7-1.8C19.9,2.5,18.1,2.1,16.1,2.1z M35.4,5.9c-2,0-3.8,0.4-5,1c-1.2,0.6-1.7,1.3-1.7,1.8s0.5,1.2,1.7,1.8
	c1.2,0.6,3,1,5,1c0.5,0,1.1,0,1.6-0.1c0.5-0.7,1.3-1.2,2.1-1.6C40,9.3,41,9,42.1,8.8c0,0,0-0.1,0-0.1c0-0.5-0.5-1.2-1.7-1.8
	C39.2,6.4,37.4,5.9,35.4,5.9z M9.5,8.2v0.6c0,0.3,0.2,0.7,0.7,1.1c0.5,0.4,1.3,0.9,2.4,1.2c2.2,0.6,5,0.6,7.1,0
	c1.1-0.3,1.9-0.8,2.4-1.2c0.5-0.4,0.7-0.8,0.7-1.1V8.2c-0.2,0.1-0.5,0.3-0.7,0.4c-1.6,0.8-3.7,1.2-6,1.2s-4.4-0.4-6-1.2
	C9.9,8.4,9.7,8.3,9.5,8.2z M45.1,10.7c-2,0-3.8,0.4-5,1c-1.2,0.6-1.7,1.3-1.7,1.8c0,0.5,0.5,1.2,1.7,1.8c1.2,0.6,3,1,5,1
	s3.8-0.4,5-1c1.2-0.6,1.7-1.3,1.7-1.8c0-0.5-0.5-1.2-1.7-1.8C48.9,11.1,47.1,10.7,45.1,10.7z M28.8,12v0.3c0.4,0.1,0.7,0.3,1,0.4
	c1.1,0.5,2,1.3,2.5,2.3c1.2,0.3,2.6,0.4,4,0.3v-1.7c-0.3,0-0.6,0-0.8,0c-2.3,0-4.4-0.4-6-1.2C29.2,12.3,29,12.2,28.8,12z M9.5,12
	v0.5c0,0.3,0.2,0.7,0.7,1.1c0.5,0.4,1.3,0.9,2.4,1.2c0.8,0.2,1.7,0.4,2.7,0.4c0.2-0.6,0.7-1.2,1.2-1.7c-1.5,0-3.1-0.2-4.5-0.6
	C11,12.8,10.2,12.5,9.5,12z M23.8,13.7c-2,0-3.8,0.4-5,1c-1.2,0.6-1.7,1.3-1.7,1.8s0.5,1.2,1.7,1.8c1.2,0.6,3,1,5,1s3.8-0.4,5-1
	c1.2-0.6,1.7-1.3,1.7-1.8s-0.5-1.2-1.7-1.8C27.6,14.1,25.8,13.7,23.8,13.7z M9.5,15.9v0.5c0,0.3,0.2,0.7,0.7,1.1
	c0.5,0.4,1.3,0.9,2.4,1.2c0.8,0.2,1.6,0.4,2.5,0.4v-1.7c-1.1-0.1-2.1-0.2-3.1-0.5C11,16.7,10.2,16.3,9.5,15.9L9.5,15.9z M38.5,16.8
	v0.6c0,0.3,0.2,0.7,0.7,1.1c0.5,0.4,1.3,0.9,2.4,1.2c2.2,0.6,5,0.6,7.1,0c1.1-0.3,1.9-0.8,2.4-1.2c0.5-0.4,0.7-0.8,0.7-1.1v-0.6
	c-0.2,0.1-0.5,0.3-0.7,0.4c-1.6,0.8-3.7,1.2-6,1.2s-4.4-0.4-6-1.2C38.9,17.1,38.7,16.9,38.5,16.8z M32.7,17.3v1.6
	c1.1,0.2,2.4,0.3,3.6,0.2v-1.7C35.1,17.6,33.8,17.5,32.7,17.3L32.7,17.3z M17.2,19.8v0.6c0,0.3,0.2,0.7,0.7,1.1
	c0.5,0.4,1.3,0.9,2.4,1.2c2.2,0.6,5,0.6,7.1,0c1.1-0.3,1.9-0.8,2.4-1.2c0.5-0.4,0.7-0.8,0.7-1.1v-0.6c-0.2,0.1-0.5,0.3-0.7,0.4
	c-1.6,0.8-3.7,1.2-6,1.2s-4.4-0.4-6-1.2C17.6,20,17.4,19.9,17.2,19.8L17.2,19.8z M9.5,19.8v0.5c0,0.3,0.2,0.7,0.7,1.1
	c0.5,0.4,1.3,0.9,2.4,1.2c0.8,0.2,1.6,0.4,2.5,0.4v-1.7c-1.1-0.1-2.1-0.2-3.1-0.5C11,20.6,10.2,20.2,9.5,19.8L9.5,19.8z M38.5,20.6
	v0.5c0,0.3,0.2,0.7,0.7,1.1c0.5,0.4,1.3,0.9,2.4,1.2c2.2,0.6,5,0.6,7.1,0c1.1-0.3,1.9-0.8,2.4-1.2c0.5-0.4,0.7-0.8,0.7-1.1v-0.5
	c-0.7,0.4-1.5,0.8-2.5,1.1c-2.6,0.8-5.7,0.8-8.3,0C40,21.4,39.2,21.1,38.5,20.6z M32.7,21.2v1.6c1.1,0.2,2.4,0.3,3.6,0.2v-1.7
	C35.1,21.4,33.8,21.4,32.7,21.2L32.7,21.2z M9.5,23.6v0.5c0,0.3,0.2,0.7,0.7,1.1c0.5,0.4,1.3,0.9,2.4,1.2c0.8,0.2,1.6,0.4,2.5,0.4
	v-1.7c-1.1-0.1-2.1-0.2-3.1-0.5C11,24.4,10.2,24.1,9.5,23.6L9.5,23.6z M17.2,23.6v0.5c0,0.3,0.2,0.7,0.7,1.1
	c0.5,0.4,1.3,0.9,2.4,1.2c2.2,0.6,5,0.6,7.1,0c1.1-0.3,1.9-0.8,2.4-1.2c0.5-0.4,0.7-0.8,0.7-1.1v-0.5c-0.7,0.4-1.5,0.8-2.5,1.1
	c-2.6,0.8-5.7,0.8-8.3,0C18.7,24.4,17.9,24.1,17.2,23.6z M38.5,24.5v0.5c0,0.3,0.2,0.7,0.7,1.1c0.5,0.4,1.3,0.9,2.4,1.2
	c2.2,0.6,5,0.6,7.1,0c1.1-0.3,1.9-0.8,2.4-1.2c0.5-0.4,0.7-0.8,0.7-1.1v-0.5c-0.7,0.4-1.5,0.8-2.5,1.1c-2.6,0.8-5.7,0.8-8.3,0
	C40,25.3,39.2,25,38.5,24.5z M32.7,25v1.6c1.1,0.2,2.4,0.3,3.6,0.2v-1.7C35.1,25.3,33.8,25.2,32.7,25L32.7,25z M17.2,27.5v0.3
	c0.4,0.1,0.7,0.3,1,0.4c1.1,0.5,2,1.3,2.5,2.3c2.1,0.5,4.7,0.5,6.7-0.1c1.1-0.3,1.9-0.8,2.4-1.2c0.5-0.4,0.7-0.8,0.7-1.1v-0.5
	c-0.7,0.4-1.5,0.8-2.5,1.1c-2.6,0.8-5.7,0.8-8.3,0C18.7,28.3,17.9,27.9,17.2,27.5z M38.5,28.4v0.5c0,0.3,0.2,0.7,0.7,1.1
	c0.5,0.4,1.3,0.9,2.4,1.2c2.2,0.6,5,0.6,7.1,0c1.1-0.3,1.9-0.8,2.4-1.2c0.5-0.4,0.7-0.8,0.7-1.1v-0.5c-0.7,0.4-1.5,0.8-2.5,1.1
	c-2.6,0.8-5.7,0.8-8.3,0C40,29.2,39.2,28.8,38.5,28.4z M32.7,28.9v1.6c1.1,0.2,2.4,0.3,3.6,0.2v-1.7C35.1,29.2,33.8,29.1,32.7,28.9
	L32.7,28.9z M12.2,29.1c-2,0-3.8,0.4-5,1c-1.2,0.6-1.7,1.3-1.7,1.8s0.5,1.2,1.7,1.8c1.2,0.6,3,1,5,1s3.8-0.4,5-1
	c1.2-0.6,1.7-1.3,1.7-1.8s-0.5-1.2-1.7-1.8C16,29.5,14.2,29.1,12.2,29.1z M30.5,31.4c-0.7,0.4-1.5,0.8-2.5,1.1
	c-2.2,0.6-4.7,0.7-6.9,0.3v1.7c2,0.4,4.4,0.4,6.3-0.2c1.1-0.3,1.9-0.8,2.4-1.2c0.5-0.4,0.7-0.8,0.7-1.1V31.4z M38.5,32.2v0.5
	c0,0.3,0.2,0.7,0.7,1.1c0.5,0.4,1.3,0.8,2.3,1.2c0.5-0.4,1-0.8,1.6-1.1c0.1-0.1,0.3-0.1,0.4-0.2c-0.9-0.1-1.7-0.2-2.5-0.5
	C40,33,39.2,32.7,38.5,32.2L38.5,32.2z M51.7,32.2c-0.3,0.2-0.7,0.4-1.1,0.6c0.4,0,0.7,0.1,1.1,0.2c0-0.1,0-0.1,0-0.2
	C51.7,32.8,51.7,32.2,51.7,32.2z M32.7,32.8v1.6c0.8,0.2,1.8,0.3,2.8,0.3c0.3,0,0.6,0,0.8,0V33C35.1,33,33.8,33,32.7,32.8L32.7,32.8
	z M49,34.9c-2,0-3.8,0.4-5,1c-1.2,0.6-1.7,1.3-1.7,1.8s0.5,1.2,1.7,1.8c1.2,0.6,3,1,5,1s3.8-0.4,5-1c1.2-0.6,1.7-1.3,1.7-1.8
	s-0.5-1.2-1.7-1.8C52.7,35.3,50.9,34.9,49,34.9z M5.6,35.2v0.6c0,0.3,0.2,0.7,0.7,1.1c0.5,0.4,1.3,0.9,2.4,1.2c2.2,0.6,5,0.6,7.1,0
	c1.1-0.3,1.9-0.8,2.4-1.2c0.5-0.4,0.7-0.8,0.7-1.1v-0.6c-0.2,0.1-0.5,0.3-0.7,0.4c-1.6,0.8-3.7,1.2-6,1.2s-4.4-0.4-6-1.2
	C6.1,35.5,5.8,35.4,5.6,35.2z M30.5,35.2c-0.7,0.4-1.5,0.8-2.5,1.1c-2.2,0.6-4.7,0.7-6.9,0.3v1.7c2,0.4,4.4,0.4,6.3-0.2
	c1.1-0.3,1.9-0.8,2.4-1.2c0.5-0.4,0.7-0.8,0.7-1.1V35.2z M38.5,36.1v0.5c0,0.5,0.5,1.2,1.7,1.8c0,0,0,0,0,0v-1.5
	C39.5,36.7,39,36.4,38.5,36.1L38.5,36.1z M5.6,39.1v0.5c0,0.3,0.2,0.7,0.7,1.1c0.5,0.4,1.3,0.9,2.4,1.2c2.2,0.6,5,0.6,7.1,0
	c1.1-0.3,1.9-0.8,2.4-1.2c0.5-0.4,0.7-0.8,0.7-1.1v-0.5c-0.7,0.4-1.5,0.8-2.5,1.1c-2.6,0.8-5.7,0.8-8.3,0
	C7.1,39.9,6.3,39.5,5.6,39.1z M21.1,40.5v1.6c0.6,0.1,1.2,0.2,1.9,0.3c0.2-0.6,0.7-1.2,1.2-1.7C23.1,40.7,22.1,40.7,21.1,40.5z
	 M31.6,40.7c-2,0-3.8,0.4-5,1c-1.2,0.6-1.7,1.3-1.7,1.8c0,0.5,0.5,1.2,1.7,1.8c1.2,0.6,3,1,5,1s3.8-0.4,5-1c1.2-0.6,1.7-1.3,1.7-1.8
	c0-0.5-0.5-1.2-1.7-1.8C35.3,41.1,33.6,40.7,31.6,40.7z M42.3,41v0.6c0,0.3,0.2,0.7,0.7,1.1c0.5,0.4,1.3,0.9,2.4,1.2
	c2.2,0.6,5,0.6,7.1,0c1.1-0.3,1.9-0.8,2.4-1.2c0.5-0.4,0.7-0.8,0.7-1.1V41c-0.2,0.1-0.5,0.3-0.7,0.4c-1.6,0.8-3.7,1.2-6,1.2
	s-4.4-0.4-6-1.2C42.8,41.3,42.5,41.2,42.3,41z M5.6,43v0.5c0,0.3,0.2,0.7,0.7,1.1c0.5,0.4,1.3,0.9,2.4,1.2c2.2,0.6,5,0.6,7.1,0
	c1.1-0.3,1.9-0.8,2.4-1.2c0.5-0.4,0.7-0.8,0.7-1.1V43c-0.7,0.4-1.5,0.8-2.5,1.1c-2.6,0.8-5.7,0.8-8.3,0C7.1,43.8,6.3,43.4,5.6,43z
	 M42.3,44.9v0.5c0,0.3,0.2,0.7,0.7,1.1c0.5,0.4,1.3,0.9,2.4,1.2c2.2,0.6,5,0.6,7.1,0c1.1-0.3,1.9-0.8,2.4-1.2
	c0.5-0.4,0.7-0.8,0.7-1.1v-0.5c-0.7,0.4-1.5,0.8-2.5,1.1c-2.6,0.8-5.7,0.8-8.3,0C43.9,45.7,43,45.3,42.3,44.9z M24.9,46.8v0.6
	c0,0.3,0.2,0.7,0.7,1.1c0.5,0.4,1.3,0.9,2.4,1.2c2.2,0.6,5,0.6,7.1,0c1.1-0.3,1.9-0.8,2.4-1.2c0.5-0.4,0.7-0.8,0.7-1.1v-0.6
	c-0.2,0.1-0.5,0.3-0.7,0.4c-1.6,0.8-3.7,1.2-6,1.2s-4.4-0.4-6-1.2C25.4,47.1,25.1,47,24.9,46.8z M5.6,46.8v0.5
	c0,0.3,0.2,0.7,0.7,1.1c0.5,0.4,1.3,0.9,2.4,1.2c2.2,0.6,5,0.6,7.1,0c1.1-0.3,1.9-0.8,2.4-1.2c0.5-0.4,0.7-0.8,0.7-1.1v-0.5
	c-0.7,0.4-1.5,0.8-2.5,1.1c-2.6,0.8-5.7,0.8-8.3,0C7.1,47.6,6.3,47.3,5.6,46.8L5.6,46.8z M42.3,48.7v0.5c0,0.3,0.2,0.7,0.7,1.1
	c0.5,0.4,1.3,0.9,2.4,1.2c2.2,0.6,5,0.6,7.1,0c1.1-0.3,1.9-0.8,2.4-1.2c0.5-0.4,0.7-0.8,0.7-1.1v-0.5c-0.7,0.4-1.5,0.8-2.5,1.1
	c-2.6,0.8-5.7,0.8-8.3,0C43.9,49.6,43,49.2,42.3,48.7L42.3,48.7z M5.6,50.7v0.5c0,0.3,0.2,0.7,0.7,1.1c0.5,0.4,1.3,0.9,2.4,1.2
	c2.2,0.6,5,0.6,7.1,0c1.1-0.3,1.9-0.8,2.4-1.2c0.5-0.4,0.7-0.8,0.7-1.1v-0.5c-0.7,0.4-1.5,0.8-2.5,1.1c-2.6,0.8-5.7,0.8-8.3,0
	C7.1,51.5,6.3,51.1,5.6,50.7L5.6,50.7z M24.9,50.7v0.5c0,0.5,0.5,1.2,1.7,1.8c1.2,0.6,3,1,5,1s3.8-0.4,5-1c1.2-0.6,1.7-1.3,1.7-1.8
	v-0.5c-0.7,0.4-1.5,0.8-2.5,1.1c-2.6,0.8-5.7,0.8-8.3,0C26.5,51.5,25.6,51.1,24.9,50.7L24.9,50.7z M42.3,52.6v0.5
	c0,0.5,0.5,1.2,1.7,1.8c1.2,0.6,3,1,5,1s3.8-0.4,5-1c1.2-0.6,1.7-1.3,1.7-1.8v-0.5c-0.7,0.4-1.5,0.8-2.5,1.1c-2.6,0.8-5.7,0.8-8.3,0
	C43.9,53.4,43,53.1,42.3,52.6L42.3,52.6z M5.6,54.5v0.5c0,0.5,0.5,1.2,1.7,1.8c1.2,0.6,3,1,5,1s3.8-0.4,5-1c1.2-0.6,1.7-1.3,1.7-1.8
	v-0.5c-0.7,0.4-1.5,0.8-2.5,1.1c-2.6,0.8-5.7,0.8-8.3,0C7.1,55.3,6.3,55,5.6,54.5L5.6,54.5z"/>
</svg>
