<?xml version="1.0" encoding="utf-8"?>
<!-- Generator: Adobe Illustrator 23.0.6, SVG Export Plug-In . SVG Version: 6.00 Build 0)  -->
<svg version="1.1" id="Layer_1" xmlns="http://www.w3.org/2000/svg" xmlns:xlink="http://www.w3.org/1999/xlink" x="0px" y="0px"
	 viewBox="0 0 60 60" style="enable-background:new 0 0 60 60;" xml:space="preserve">
<path d="M52.5,15h-45C6.1,15,5,16.1,5,17.5v25C5,43.9,6.1,45,7.5,45h45c1.4,0,2.5-1.1,2.5-2.5v-25C55,16.1,53.9,15,52.5,15z
	 M8.8,41.2v-5c2.8,0,5,2.2,5,5H8.8z M8.8,23.8v-5h5C13.8,21.5,11.5,23.8,8.8,23.8z M30,37.5c-3.5,0-6.2-3.4-6.2-7.5
	c0-4.1,2.8-7.5,6.2-7.5s6.2,3.4,6.2,7.5C36.2,34.1,33.5,37.5,30,37.5z M51.2,41.2h-5c0-2.8,2.2-5,5-5V41.2z M51.2,23.8
	c-2.8,0-5-2.2-5-5h5V23.8z"/>
</svg>
