<?xml version="1.0" encoding="utf-8"?>
<!-- Generator: Adobe Illustrator 23.0.6, SVG Export Plug-In . SVG Version: 6.00 Build 0)  -->
<svg version="1.1" id="Layer_1" xmlns="http://www.w3.org/2000/svg" xmlns:xlink="http://www.w3.org/1999/xlink" x="0px" y="0px"
	 viewBox="0 0 60 60" style="enable-background:new 0 0 60 60;" xml:space="preserve">
<path d="M55,9.8v40.4c0,2.7-2.1,4.8-4.8,4.8H9.8C7.2,55,5,52.9,5,50.2V9.8C5,7.1,7.1,5,9.8,5h40.4C52.9,5,55,7.1,55,9.8z M50.8,50.2
	V9.8c0-0.3-0.3-0.6-0.6-0.6h-1l-12.3,8.3L30,11.9l-6.8,5.6L10.9,9.2h-1c-0.4,0-0.6,0.3-0.6,0.6v40.4c0,0.3,0.3,0.6,0.6,0.6h40.4
	C50.5,50.8,50.8,50.5,50.8,50.2z M21.8,22.2v4.1h-8.2v-4.1H21.8z M21.8,30.5v4.2h-8.2v-4.2H21.8z M23,14l6-4.9H15.8L23,14z
	 M46.4,22.2v4.1H24.6v-4.1H46.4z M46.4,30.5v4.2H24.6v-4.2H46.4z M37,14l7.2-4.9H31C31,9.2,37,14,37,14z M46.4,38.8V43H35.3v-4.2
	H46.4z"/>
</svg>
