<?xml version="1.0" encoding="utf-8"?>
<!-- Generator: Adobe Illustrator 23.0.6, SVG Export Plug-In . SVG Version: 6.00 Build 0)  -->
<svg version="1.1" id="Layer_1" xmlns="http://www.w3.org/2000/svg" xmlns:xlink="http://www.w3.org/1999/xlink" x="0px" y="0px"
	 viewBox="0 0 60 60" style="enable-background:new 0 0 60 60;" xml:space="preserve">
<path d="M19.3,28.7v-4.5c0-0.7,0.6-1.3,1.3-1.3h4.5c0.7,0,1.3,0.6,1.3,1.3v4.5c0,0.7-0.6,1.3-1.3,1.3h-4.5
	C19.9,30,19.3,29.4,19.3,28.7z M34.9,30h4.5c0.7,0,1.3-0.6,1.3-1.3v-4.5c0-0.7-0.6-1.3-1.3-1.3h-4.5c-0.7,0-1.3,0.6-1.3,1.3v4.5
	C33.6,29.4,34.2,30,34.9,30z M26.4,39.4v-4.5c0-0.7-0.6-1.3-1.3-1.3h-4.5c-0.7,0-1.3,0.6-1.3,1.3v4.5c0,0.7,0.6,1.3,1.3,1.3h4.5
	C25.8,40.7,26.4,40.1,26.4,39.4z M34.9,40.7h4.5c0.7,0,1.3-0.6,1.3-1.3v-4.5c0-0.7-0.6-1.3-1.3-1.3h-4.5c-0.7,0-1.3,0.6-1.3,1.3v4.5
	C33.6,40.1,34.2,40.7,34.9,40.7z M55,54.6v4H5v-4c0-0.7,0.6-1.3,1.3-1.3h2.2V10.9c0-1.3,1.2-2.3,2.7-2.3h9.9V4.1
	c0-1.5,1.2-2.7,2.7-2.7h12.5c1.5,0,2.7,1.2,2.7,2.7v4.5h9.9c1.5,0,2.7,1.1,2.7,2.3v42.3h2.2C54.4,53.2,55,53.8,55,54.6z M13.9,53.1
	h12.6v-7.5c0-0.7,0.6-1.3,1.3-1.3h4.5c0.7,0,1.3,0.6,1.3,1.3v7.5h12.6V13.9h-7.2v2.7c0,1.5-1.2,2.7-2.7,2.7H23.8
	c-1.5,0-2.7-1.2-2.7-2.7v-2.7h-7.2V53.1z M34.7,8.6h-2.9V5.7c0-0.4-0.3-0.7-0.7-0.7h-2.2c-0.4,0-0.7,0.3-0.7,0.7v2.9h-2.9
	c-0.4,0-0.7,0.3-0.7,0.7v2.2c0,0.4,0.3,0.7,0.7,0.7h2.9V15c0,0.4,0.3,0.7,0.7,0.7h2.2c0.4,0,0.7-0.3,0.7-0.7v-2.9h2.9
	c0.4,0,0.7-0.3,0.7-0.7V9.2C35.4,8.9,35.1,8.6,34.7,8.6z"/>
</svg>
