<?xml version="1.0" encoding="utf-8"?>
<!-- Generator: Adobe Illustrator 23.0.6, SVG Export Plug-In . SVG Version: 6.00 Build 0)  -->
<svg version="1.1" id="Layer_1" xmlns="http://www.w3.org/2000/svg" xmlns:xlink="http://www.w3.org/1999/xlink" x="0px" y="0px"
	 viewBox="0 0 60 60" style="enable-background:new 0 0 60 60;" xml:space="preserve">
<path d="M29.3,20.6l-16,13.2v14.2c0,0.8,0.6,1.4,1.4,1.4l9.7,0c0.8,0,1.4-0.6,1.4-1.4v-8.3c0-0.8,0.6-1.4,1.4-1.4h5.6
	c0.8,0,1.4,0.6,1.4,1.4V48c0,0.8,0.6,1.4,1.4,1.4c0,0,0,0,0,0l9.7,0c0.8,0,1.4-0.6,1.4-1.4V33.8l-16-13.2
	C30.3,20.3,29.7,20.3,29.3,20.6z M54.6,29.6l-7.3-6v-12c0-0.6-0.5-1-1-1h-4.9c-0.6,0-1,0.5-1,1v6.3l-7.8-6.4c-1.5-1.3-3.8-1.3-5.3,0
	l-22,18.1c-0.4,0.4-0.5,1-0.1,1.5c0,0,0,0,0,0l2.2,2.7c0.4,0.4,1,0.5,1.5,0.1c0,0,0,0,0,0l20.4-16.8c0.4-0.3,0.9-0.3,1.3,0
	l20.4,16.8c0.4,0.4,1.1,0.3,1.5-0.1c0,0,0,0,0,0l2.2-2.7C55.1,30.6,55.1,30,54.6,29.6C54.6,29.6,54.6,29.6,54.6,29.6z"/>
</svg>
