<?xml version="1.0" encoding="utf-8"?>
<!-- Generator: Adobe Illustrator 23.0.6, SVG Export Plug-In . SVG Version: 6.00 Build 0)  -->
<svg version="1.1" id="Layer_1" xmlns="http://www.w3.org/2000/svg" xmlns:xlink="http://www.w3.org/1999/xlink" x="0px" y="0px"
	 viewBox="0 0 60 60" style="enable-background:new 0 0 60 60;" xml:space="preserve">
<path d="M52.4,8.6c-0.5-1.1-1.9-1.1-2.5-0.1c-2.7,4.7-7.5,7.6-13,7.6H30c-9.2,0-16.7,7.5-16.7,16.7c0,0.6,0.1,1.2,0.1,1.8
	c5.5-4,13.5-7.3,24.9-7.3c0.8,0,1.4,0.6,1.4,1.4S39.1,30,38.3,30C16.5,30,7.3,43.4,5.2,48.4c-0.6,1.4,0.1,3,1.5,3.6
	c1.4,0.6,3-0.1,3.6-1.5c0.1-0.3,1.8-4.2,6.2-7.9c2.8,3.8,8.2,7.4,15.2,6.7C45.4,48.4,55,36.1,55,21.2C55,16.8,54.1,12.3,52.4,8.6z"
	/>
</svg>
