<?xml version="1.0" encoding="utf-8"?>
<!-- Generator: Adobe Illustrator 23.0.6, SVG Export Plug-In . SVG Version: 6.00 Build 0)  -->
<svg version="1.1" id="Layer_1" xmlns="http://www.w3.org/2000/svg" xmlns:xlink="http://www.w3.org/1999/xlink" x="0px" y="0px"
	 viewBox="0 0 60 60" style="enable-background:new 0 0 60 60;" xml:space="preserve">
<path d="M29.7,25.1c-2.7,0-4.9,2.2-4.9,4.9s2.2,4.9,4.9,4.9s4.9-2.2,4.9-4.9S32.4,25.1,29.7,25.1z M9.6,25.1c-2.7,0-4.9,2.2-4.9,4.9
	s2.2,4.9,4.9,4.9s4.9-2.2,4.9-4.9S12.4,25.1,9.6,25.1z M49.8,25.1c-2.7,0-4.9,2.2-4.9,4.9s2.2,4.9,4.9,4.9s4.9-2.2,4.9-4.9
	S52.5,25.1,49.8,25.1z"/>
</svg>
