<?xml version="1.0" encoding="utf-8"?>
<!-- Generator: Adobe Illustrator 23.0.6, SVG Export Plug-In . SVG Version: 6.00 Build 0)  -->
<svg version="1.1" id="Layer_1" xmlns="http://www.w3.org/2000/svg" xmlns:xlink="http://www.w3.org/1999/xlink" x="0px" y="0px"
	 viewBox="0 0 60 60" style="enable-background:new 0 0 60 60;" xml:space="preserve">
<path d="M39.1,26.4c3.7,0,6.8-3,6.8-6.7c0-3.7-3.1-6.7-6.8-6.7c-3.7,0-6.8,3-6.8,6.7C32.3,23.4,35.3,26.4,39.1,26.4z M20.9,26.4
	c3.7,0,6.8-3,6.8-6.7c0-3.7-3.1-6.7-6.8-6.7s-6.8,3-6.8,6.7C14.1,23.4,17.2,26.4,20.9,26.4z M20.9,31.3C15.6,31.3,5,33.9,5,39.1v6
	h32.1v-6C37.1,33.9,26.3,31.3,20.9,31.3z M39.1,32.5c-0.7,0-1.2,0-1.9,0.1c2.6,1.9,3.6,3.1,3.6,6.5v6H55v-6
	C55,33.9,44.4,32.5,39.1,32.5z"/>
</svg>
