<?xml version="1.0" encoding="utf-8"?>
<!-- Generator: Adobe Illustrator 23.0.6, SVG Export Plug-In . SVG Version: 6.00 Build 0)  -->
<svg version="1.1" id="Layer_1" xmlns="http://www.w3.org/2000/svg" xmlns:xlink="http://www.w3.org/1999/xlink" x="0px" y="0px"
	 viewBox="0 0 60 60" style="enable-background:new 0 0 60 60;" xml:space="preserve">
<path d="M54.3,6.9c-0.1-0.6-0.6-1.1-1.2-1.2C50,5,47.5,5,45.1,5C35,5,29,10.4,24.4,17.5H14.3c-1.8,0-3.4,1-4.2,2.6l-4.8,9.7
	c-0.6,1.2-0.1,2.6,1.1,3.1c0.3,0.2,0.7,0.2,1,0.2h10.1l-2.2,2.2c-1.2,1.2-1.2,3.2,0,4.4l5,5c1.2,1.2,3.2,1.2,4.4,0c0,0,0,0,0,0
	l2.2-2.2v10.1c0,1.3,1,2.3,2.3,2.3c0.4,0,0.7-0.1,1-0.2l9.6-4.8c1.6-0.8,2.6-2.4,2.6-4.2V35.5C49.6,31,55,25,55,14.9
	C55,12.5,55,10,54.3,6.9z M42.5,21.4c-2.2,0-3.9-1.7-3.9-3.9s1.7-3.9,3.9-3.9c2.2,0,3.9,1.7,3.9,3.9S44.7,21.4,42.5,21.4z"/>
</svg>
