<?xml version="1.0" encoding="utf-8"?>
<!-- Generator: Adobe Illustrator 23.0.6, SVG Export Plug-In . SVG Version: 6.00 Build 0)  -->
<svg version="1.1" id="Layer_1" xmlns="http://www.w3.org/2000/svg" xmlns:xlink="http://www.w3.org/1999/xlink" x="0px" y="0px"
	 viewBox="0 0 60 60" style="enable-background:new 0 0 60 60;" xml:space="preserve">
<path d="M54.6,20.7C40.8,7.9,19.2,7.9,5.4,20.7c-0.5,0.5-0.5,1.3,0,1.8L8,25.1c0.5,0.5,1.3,0.5,1.8,0c11.4-10.4,29-10.4,40.4,0
	c0.5,0.5,1.3,0.4,1.8,0l2.7-2.7C55.1,22,55.1,21.2,54.6,20.7z M30,36.1c-2.8,0-5,2.2-5,5c0,2.8,2.2,5,5,5s5-2.2,5-5
	C35,38.3,32.8,36.1,30,36.1z M45.8,29.6c-9-8-22.7-8-31.7,0c-0.5,0.5-0.6,1.3,0,1.8l2.7,2.7c0.5,0.5,1.2,0.5,1.7,0.1
	c6.6-5.7,16.4-5.7,22.9,0c0.5,0.4,1.3,0.4,1.7-0.1l2.7-2.7C46.4,30.9,46.4,30,45.8,29.6z"/>
</svg>
